solid Drzak_kabelu
facet normal -6.40681059006073e-34 1.0 -1.7624790515924362e-16
  outer loop
    vertex 4.000000000000003 5.0 3.9999999999999996
    vertex 12.000000000000002 4.999999999999999 1.9999999999999996
    vertex 4.000000000000003 4.999999999999999 1.9999999999999996
  endloop
endfacet
facet normal -6.40681059006073e-34 1.0 -1.7624790515924362e-16
  outer loop
    vertex 12.000000000000002 4.999999999999999 1.9999999999999996
    vertex 4.000000000000003 5.0 3.9999999999999996
    vertex 12.000000000000002 5.0 3.9999999999999996
  endloop
endfacet
facet normal -6.40681059006073e-34 1.0 -1.7624790515924362e-16
  outer loop
    vertex 0.0 4.999999999999999 1.9999999999999996
    vertex 16.0 4.999999999999999 -1.9359513991901146e-16
    vertex 0.0 4.999999999999999 -1.9359513991901146e-16
  endloop
endfacet
facet normal -6.40681059006073e-34 1.0 -1.7624790515924362e-16
  outer loop
    vertex 16.0 4.999999999999999 -1.9359513991901146e-16
    vertex 0.0 4.999999999999999 1.9999999999999996
    vertex 16.0 4.999999999999999 1.9999999999999996
  endloop
endfacet
facet normal -6.40681059006073e-34 1.0 -1.7624790515924362e-16
  outer loop
    vertex 16.0 4.999999999999999 1.9999999999999996
    vertex 0.0 4.999999999999999 1.9999999999999996
    vertex 4.000000000000003 4.999999999999999 1.9999999999999996
  endloop
endfacet
facet normal -6.40681059006073e-34 1.0 -1.7624790515924362e-16
  outer loop
    vertex 16.0 4.999999999999999 1.9999999999999996
    vertex 4.000000000000003 4.999999999999999 1.9999999999999996
    vertex 12.000000000000002 4.999999999999999 1.9999999999999996
  endloop
endfacet
facet normal -2.718040856389408e-34 -1.0 1.7624790515924362e-16
  outer loop
    vertex 12.000000000000002 7.049916206369744e-16 3.9999999999999982
    vertex 4.000000000000003 0.0 2.0
    vertex 12.000000000000002 0.0 2.0
  endloop
endfacet
facet normal -2.718040856389408e-34 -1.0 1.7624790515924362e-16
  outer loop
    vertex 4.000000000000003 0.0 2.0
    vertex 12.000000000000002 7.049916206369744e-16 3.9999999999999982
    vertex 4.000000000000003 7.049916206369744e-16 3.9999999999999982
  endloop
endfacet
facet normal -2.718040856389408e-34 -1.0 1.7624790515924362e-16
  outer loop
    vertex 16.0 0.0 2.0
    vertex 0.0 0.0 0.0
    vertex 16.0 0.0 0.0
  endloop
endfacet
facet normal -2.718040856389408e-34 -1.0 1.7624790515924362e-16
  outer loop
    vertex 0.0 0.0 0.0
    vertex 16.0 0.0 2.0
    vertex 0.0 0.0 2.0
  endloop
endfacet
facet normal -2.718040856389408e-34 -1.0 1.7624790515924362e-16
  outer loop
    vertex 0.0 0.0 2.0
    vertex 16.0 0.0 2.0
    vertex 12.000000000000002 0.0 2.0
  endloop
endfacet
facet normal -2.718040856389408e-34 -1.0 1.7624790515924362e-16
  outer loop
    vertex 0.0 0.0 2.0
    vertex 12.000000000000002 0.0 2.0
    vertex 4.000000000000003 0.0 2.0
  endloop
endfacet
facet normal -1.0 0.0 0.0
  outer loop
    vertex 0.0 4.999999999999999 1.9999999999999996
    vertex 0.0 0.0 0.0
    vertex 0.0 0.0 2.0
  endloop
endfacet
facet normal -1.0 0.0 0.0
  outer loop
    vertex 0.0 0.0 0.0
    vertex 0.0 4.999999999999999 1.9999999999999996
    vertex 0.0 4.999999999999999 -1.9359513991901146e-16
  endloop
endfacet
facet normal -0.0 1.409983241273949e-16 1.0
  outer loop
    vertex 4.000000000000003 0.0 2.0
    vertex 0.0 4.999999999999999 1.9999999999999996
    vertex 0.0 0.0 2.0
  endloop
endfacet
facet normal -0.0 1.409983241273949e-16 1.0
  outer loop
    vertex 0.0 4.999999999999999 1.9999999999999996
    vertex 4.000000000000003 0.0 2.0
    vertex 4.000000000000003 4.999999999999999 1.9999999999999996
  endloop
endfacet
facet normal -1.0 0.0 0.0
  outer loop
    vertex 4.000000000000003 7.049916206369744e-16 3.9999999999999982
    vertex 4.000000000000003 4.999999999999999 1.9999999999999996
    vertex 4.000000000000003 0.0 2.0
  endloop
endfacet
facet normal -1.0 0.0 0.0
  outer loop
    vertex 4.000000000000003 4.999999999999999 1.9999999999999996
    vertex 4.000000000000003 7.049916206369744e-16 3.9999999999999982
    vertex 4.000000000000003 5.0 3.9999999999999996
  endloop
endfacet
facet normal -0.0 -2.819966482547898e-16 1.0
  outer loop
    vertex 12.000000000000002 7.049916206369744e-16 3.9999999999999982
    vertex 4.000000000000003 5.0 3.9999999999999996
    vertex 4.000000000000003 7.049916206369744e-16 3.9999999999999982
  endloop
endfacet
facet normal -0.0 -2.819966482547898e-16 1.0
  outer loop
    vertex 4.000000000000003 5.0 3.9999999999999996
    vertex 12.000000000000002 7.049916206369744e-16 3.9999999999999982
    vertex 12.000000000000002 5.0 3.9999999999999996
  endloop
endfacet
facet normal 1.0 -0.0 -0.0
  outer loop
    vertex 12.000000000000002 4.999999999999999 1.9999999999999996
    vertex 12.000000000000002 7.049916206369744e-16 3.9999999999999982
    vertex 12.000000000000002 0.0 2.0
  endloop
endfacet
facet normal 1.0 -0.0 -0.0
  outer loop
    vertex 12.000000000000002 7.049916206369744e-16 3.9999999999999982
    vertex 12.000000000000002 4.999999999999999 1.9999999999999996
    vertex 12.000000000000002 5.0 3.9999999999999996
  endloop
endfacet
facet normal -0.0 1.409983241273949e-16 1.0
  outer loop
    vertex 16.0 0.0 2.0
    vertex 12.000000000000002 4.999999999999999 1.9999999999999996
    vertex 12.000000000000002 0.0 2.0
  endloop
endfacet
facet normal -0.0 1.409983241273949e-16 1.0
  outer loop
    vertex 12.000000000000002 4.999999999999999 1.9999999999999996
    vertex 16.0 0.0 2.0
    vertex 16.0 4.999999999999999 1.9999999999999996
  endloop
endfacet
facet normal 1.0 -0.0 -0.0
  outer loop
    vertex 16.0 4.999999999999999 -1.9359513991901146e-16
    vertex 16.0 0.0 2.0
    vertex 16.0 0.0 0.0
  endloop
endfacet
facet normal 1.0 -0.0 -0.0
  outer loop
    vertex 16.0 0.0 2.0
    vertex 16.0 4.999999999999999 -1.9359513991901146e-16
    vertex 16.0 4.999999999999999 1.9999999999999996
  endloop
endfacet
facet normal 0.0 -3.87190279838023e-17 -1.0
  outer loop
    vertex 16.0 4.999999999999999 -1.9359513991901146e-16
    vertex 0.0 0.0 0.0
    vertex 0.0 4.999999999999999 -1.9359513991901146e-16
  endloop
endfacet
facet normal 0.0 -3.87190279838023e-17 -1.0
  outer loop
    vertex 0.0 0.0 0.0
    vertex 16.0 4.999999999999999 -1.9359513991901146e-16
    vertex 16.0 0.0 0.0
  endloop
endfacet
endsolid Drzak_kabelu
